HIERARCHY
ROOT joint_Root
{
	OFFSET 0.0 0.0 0.0
	CHANNELS 6 Xposition Yposition Zposition Zrotation Xrotation Yrotation 
	JOINT Hips
	{
		OFFSET 4.5925 91.4895 -427.239
		CHANNELS 6 Xposition Yposition Zposition Zrotation Xrotation Yrotation 
		JOINT Spine
		{
			OFFSET 15.7357 0.0 0.0
			CHANNELS 6 Xposition Yposition Zposition Zrotation Xrotation Yrotation 
			JOINT Chest
			{
				OFFSET 8.98455 -0.406207 0.0
				CHANNELS 6 Xposition Yposition Zposition Zrotation Xrotation Yrotation 
				JOINT Neck
				{
					OFFSET 16.3773 0.0 0.0
					CHANNELS 6 Xposition Yposition Zposition Zrotation Xrotation Yrotation 
					JOINT Head
					{
						OFFSET 6.45672 0.0 0.0
						CHANNELS 6 Xposition Yposition Zposition Zrotation Xrotation Yrotation 
						End Site
						{
							OFFSET 0.0 0.0 0.0
						}
					}
				}
				JOINT Shoulder_L
				{
					OFFSET 12.9942 -0.242716 4.98039
					CHANNELS 6 Xposition Yposition Zposition Zrotation Xrotation Yrotation 
					JOINT UpperArm_L
					{
						OFFSET 5.34809 0.0 0.0
						CHANNELS 6 Xposition Yposition Zposition Zrotation Xrotation Yrotation 
						JOINT LowerArm_L
						{
							OFFSET 24.3286 1.87007e-05 0.0
							CHANNELS 6 Xposition Yposition Zposition Zrotation Xrotation Yrotation 
							JOINT Hand_L
							{
								OFFSET 22.2916 0.0 0.0
								CHANNELS 6 Xposition Yposition Zposition Zrotation Xrotation Yrotation 
								End Site
								{
									OFFSET 0.0 0.0 0.0
								}
							}
						}
					}
				}
				JOINT Shoulder_R
				{
					OFFSET 12.9945 -0.242716 -4.98039
					CHANNELS 6 Xposition Yposition Zposition Zrotation Xrotation Yrotation 
					JOINT UpperArm_R
					{
						OFFSET -5.34813 0.0 0.0
						CHANNELS 6 Xposition Yposition Zposition Zrotation Xrotation Yrotation 
						JOINT LowerArm_R
						{
							OFFSET -24.3289 0.000322201 0.0
							CHANNELS 6 Xposition Yposition Zposition Zrotation Xrotation Yrotation 
							JOINT Hand_R
							{
								OFFSET -22.2915 -0.000108084 0.0
								CHANNELS 6 Xposition Yposition Zposition Zrotation Xrotation Yrotation 
								End Site
								{
									OFFSET 0.0 0.0 0.0
								}
							}
						}
					}
				}
			}
		}
		JOINT UpperLeg_L
		{
			OFFSET -2.19248 -6.46944 0.0
			CHANNELS 6 Xposition Yposition Zposition Zrotation Xrotation Yrotation 
			JOINT LowerLeg_L
			{
				OFFSET 39.0811 0.0 -1.23785e-05
				CHANNELS 6 Xposition Yposition Zposition Zrotation Xrotation Yrotation 
				JOINT Foot_L
				{
					OFFSET 40.9854 0.0 -1.26872e-05
					CHANNELS 6 Xposition Yposition Zposition Zrotation Xrotation Yrotation 
					JOINT Toes_L
					{
						OFFSET 11.7543 0.0 0.0
						CHANNELS 6 Xposition Yposition Zposition Zrotation Xrotation Yrotation 
						End Site
						{
							OFFSET 0.0 0.0 0.0
						}
					}
				}
			}
		}
		JOINT UpperLeg_R
		{
			OFFSET -2.19251 6.46944 0.0
			CHANNELS 6 Xposition Yposition Zposition Zrotation Xrotation Yrotation 
			JOINT LowerLeg_R
			{
				OFFSET -39.0811 -0.00228153 -0.0401928
				CHANNELS 6 Xposition Yposition Zposition Zrotation Xrotation Yrotation 
				JOINT Foot_R
				{
					OFFSET -40.9854 0.0 0.0
					CHANNELS 6 Xposition Yposition Zposition Zrotation Xrotation Yrotation 
					JOINT Toes_R
					{
						OFFSET -11.7543 0.0 0.0
						CHANNELS 6 Xposition Yposition Zposition Zrotation Xrotation Yrotation 
						End Site
						{
							OFFSET 0.0 0.0 0.0
						}
					}
				}
			}
		}
	}
}
MOTION
Frames:	5
Frame Time:	0.0333333
0.000000 0.000000 0.000000 0.000000 0.000000 -0.000000 4.709060 90.666900 -0.715797 90.727300 -8.627580 15.779000 15.735700 0.000005 -0.000001 92.658500 80.801500 -97.260900 8.984550 -0.406207 -0.000000 10.658000 0.730611 -9.267930 16.377300 -0.000001 -0.000001 26.650100 2.175060 -5.376550 6.456720 -0.000001 -0.000000 10.805100 5.135850 -9.462810 12.994200 -0.242716 4.980390 -91.676800 5.454350 -72.882800 5.348090 -0.000007 -0.000001 -60.464100 27.013800 -11.877000 24.328600 0.000019 0.000005 11.292700 27.752100 -23.211300 22.291600 -0.000001 0.000005 10.144100 5.265910 1.008360 12.994500 -0.242716 -4.980390 90.537800 -2.086730 -75.543000 -5.348130 -0.000001 -0.000004 -40.472800 -53.222800 -56.888100 -24.328900 0.000322 -0.000009 4.145480 6.105190 -34.280900 -22.291500 -0.000108 -0.000004 25.472500 5.367800 -1.918800 -2.192480 -6.469440 -0.000000 -177.605000 -18.333100 6.236050 39.081100 -0.000007 -0.000012 -0.023631 0.040893 30.023600 40.985400 -0.000006 -0.000013 4.742500 4.560970 -70.940700 11.754300 -0.000000 0.000003 -0.000218 -0.001991 -16.652500 -2.192510 6.469440 -0.000001 168.176000 14.581600 -174.963000 -39.081100 -0.002282 -0.040193 -0.196673 0.342923 30.248700 -40.985400 0.000008 0.000006 0.324431 18.550300 -68.844400 -11.754300 -0.000006 -0.000006 -0.003143 -0.042205 -18.289500
0.000000 0.000000 0.000000 0.000000 0.000000 -0.000000 4.717660 90.664800 -0.761551 90.706100 -9.120480 15.863000 15.735700 0.000005 -0.000001 92.321500 80.802100 -96.884000 8.984550 -0.406207 -0.000000 10.656600 0.624292 -9.178270 16.377300 -0.000001 -0.000001 26.578900 2.099050 -5.324990 6.456720 -0.000001 -0.000000 10.787700 5.061000 -9.392690 12.994200 -0.242716 4.980390 -91.663800 5.430350 -72.936700 5.348090 -0.000007 -0.000001 -60.342700 27.092200 -12.163300 24.328600 0.000019 0.000005 11.256000 27.679300 -23.192300 22.291600 -0.000001 0.000005 10.277600 5.265850 1.010050 12.994500 -0.242716 -4.980390 90.547700 -2.119620 -75.508300 -5.348130 -0.000001 -0.000004 -41.895500 -53.395800 -58.782600 -24.328900 0.000322 -0.000009 3.917320 5.776760 -34.236000 -22.291500 -0.000108 -0.000004 25.631500 5.366350 -1.873960 -2.192480 -6.469440 -0.000000 -177.535000 -18.499500 6.323770 39.081100 -0.000007 -0.000012 -0.024607 0.042566 30.032300 40.985400 -0.000006 -0.000013 4.653730 4.240720 -70.936400 11.754300 -0.000000 0.000003 -0.000207 -0.001903 -16.649300 -2.192510 6.469440 -0.000001 168.302000 14.263900 -175.059000 -39.081100 -0.002282 -0.040193 -0.193557 0.337059 30.287200 -40.985400 0.000008 0.000006 0.370213 18.696200 -68.786300 -11.754300 -0.000006 -0.000006 -0.003104 -0.041778 -18.272200
0.000000 0.000000 0.000000 0.000000 0.000000 -0.000000 4.728850 90.667800 -0.833489 90.666600 -9.628520 15.868000 15.735700 0.000005 -0.000001 91.999000 80.809900 -96.516600 8.984550 -0.406207 -0.000000 10.640200 0.522839 -9.078830 16.377300 -0.000001 -0.000001 26.470900 2.014540 -5.244800 6.456720 -0.000001 -0.000000 10.753200 4.977890 -9.393070 12.994200 -0.242716 4.980390 -91.652300 5.404010 -72.970200 5.348090 -0.000007 -0.000001 -60.270400 27.042100 -12.435100 24.328600 0.000019 0.000005 11.251900 27.632300 -23.217100 22.291600 -0.000001 0.000005 10.141900 5.264430 1.048340 12.994500 -0.242716 -4.980390 90.558900 -2.155770 -75.461200 -5.348130 -0.000001 -0.000004 -43.099600 -53.495200 -60.763500 -24.328900 0.000322 -0.000009 3.651530 5.283730 -34.730500 -22.291500 -0.000108 -0.000004 25.926800 5.368070 -1.927060 -2.192480 -6.469440 -0.000000 -177.470000 -18.656800 6.277480 39.081100 -0.000007 -0.000012 -0.025583 0.044200 30.063100 40.985400 -0.000006 -0.000013 4.574510 3.967510 -70.901600 11.754300 -0.000000 0.000003 -0.000231 -0.002089 -16.656000 -2.192510 6.469440 -0.000001 168.483000 13.931900 -175.237000 -39.081100 -0.002282 -0.040193 -0.192727 0.335480 30.299000 -40.985400 0.000008 0.000006 0.404478 18.810700 -68.698500 -11.754300 -0.000006 -0.000006 -0.003066 -0.041351 -18.254800
0.000000 0.000000 0.000000 0.000000 0.000000 -0.000000 4.735500 90.671900 -0.887996 90.625200 -10.098000 15.913400 15.735700 0.000005 -0.000001 91.695800 80.809200 -96.170400 8.984550 -0.406207 -0.000000 10.640300 0.427414 -8.983930 16.377300 -0.000001 -0.000001 26.422300 1.904730 -5.184060 6.456720 -0.000001 -0.000000 10.681900 4.894420 -9.352200 12.994200 -0.242716 4.980390 -91.642300 5.391390 -73.030700 5.348090 -0.000007 -0.000001 -60.178600 27.127200 -12.657700 24.328600 0.000019 0.000005 11.243700 27.675000 -23.171900 22.291600 -0.000001 0.000005 10.254100 5.261720 1.120920 12.994500 -0.242716 -4.980390 90.562100 -2.157420 -75.392700 -5.348130 -0.000001 -0.000004 -44.023600 -53.493000 -62.810500 -24.328900 0.000322 -0.000009 3.517990 4.927280 -35.602400 -22.291500 -0.000108 -0.000004 26.114700 5.372660 -2.069130 -2.192480 -6.469440 -0.000000 -177.368000 -18.878300 6.334920 39.081100 -0.000007 -0.000012 -0.026906 0.046495 30.058100 40.985400 -0.000006 -0.000013 4.506860 3.720320 -70.887800 11.754300 -0.000000 0.000003 -0.000195 -0.001809 -16.645900 -2.192510 6.469440 -0.000001 168.630000 13.675300 -175.343000 -39.081100 -0.002282 -0.040193 -0.188849 0.328835 30.299500 -40.985400 0.000008 0.000006 0.454361 18.968800 -68.616500 -11.754300 -0.000006 -0.000006 -0.003098 -0.041707 -18.269300
0.000000 0.000000 0.000000 0.000000 0.000000 -0.000000 4.731530 90.679500 -0.957182 90.607700 -10.514000 15.918500 15.735700 0.000005 -0.000001 91.380000 80.825000 -95.818500 8.984550 -0.406207 -0.000000 10.607000 0.328328 -8.902410 16.377300 -0.000001 -0.000001 26.364600 1.816530 -5.066450 6.456720 -0.000001 -0.000000 10.633500 4.809350 -9.381290 12.994200 -0.242716 4.980390 -91.632300 5.379460 -73.092600 5.348090 -0.000007 -0.000001 -60.114200 27.256400 -12.791300 24.328600 0.000019 0.000005 11.271300 27.663800 -23.231900 22.291600 -0.000001 0.000005 10.370100 5.260260 1.160110 12.994500 -0.242716 -4.980390 90.599000 -2.284680 -75.304400 -5.348130 -0.000001 -0.000004 -45.020500 -53.380400 -64.928700 -24.328900 0.000322 -0.000009 3.383740 4.507730 -36.963500 -22.291500 -0.000108 -0.000004 26.361000 5.377220 -2.211380 -2.192480 -6.469440 -0.000000 -177.304000 -19.047500 6.335060 39.081100 -0.000007 -0.000012 -0.026639 0.046065 30.040900 40.985400 -0.000006 -0.000013 4.446150 3.545930 -70.851800 11.754300 -0.000000 0.000003 -0.000214 -0.001957 -16.651200 -2.192510 6.469440 -0.000001 168.764000 13.438700 -175.481000 -39.081100 -0.002282 -0.040193 -0.182474 0.317938 30.298400 -40.985400 0.000008 0.000006 0.503832 19.106000 -68.541700 -11.754300 -0.000006 -0.000006 -0.002941 -0.039932 -18.197100
